:FULLY-SPECIFIED
:FORCE-ALL-JOINTS-BE-3DOF
:DEGREES
713
root 5.51387 21.4533 7.36188 -178.249 -79.9682 -158.91
lfemur -35.3593 -12.7242 10.3287
ltibia 71.048 -0 0
lfoot 7.49707 -8.91491 0.0105352
ltoes 30.471 -0 0
rfemur -32.3086 -0.148855 -0.903312
rtibia 90.22 -0 0
rfoot 20.3328 -20.295 -0.249003
rtoes 40.9777 -0 0
lowerback 6.05934 -1.07171 -1.96755
upperback -1.29705 -1.67365 -1.65257
thorax -4.76167 -0.807552 -0.483077
lowerneck -6.78614 -6.30091 -2.33143
upperneck -0.0933096 -8.38165 5.00462
head 1.46089 -4.12068 1.67789
lclavicle -2.46493e-014 2.54444e-014 0
lhumerus 2.18866 -20.0866 15.2477
lradius 46.6746 -0 0
lwrist 23.0731 0 0
lhand -22.2355 -3.52576 -0.00206389
lfingers 7.12502 -0 0
lthumb 4.18141 26.4139 -0.00183667
rclavicle -2.46493e-014 2.54444e-014 0
rhumerus -14.0915 -2.60614 -26.0433
rradius 99.8376 -0 0
rwrist -9.97595 0 0
rhand -26.909 -34.4488 0.0325107
rfingers 7.12502 -0 0
rthumb -0.332083 -64.4217 0.0309347
714
root 5.50512 21.5043 7.58039 -172.191 -83.2048 -167.832
lfemur -34.3989 -13.6794 9.34452
ltibia 67.9508 -0 0
lfoot 7.44887 -9.18576 0.00496374
ltoes 30.1403 -0 0
rfemur -33.1992 -0.841321 -1.43694
rtibia 93.8889 -0 0
rfoot 20.8284 -20.6215 -0.126984
rtoes 42.1064 -0 0
lowerback 6.04659 -0.819209 -1.87519
upperback -1.306 -1.32785 -1.60449
thorax -4.75528 -0.636408 -0.499393
lowerneck -6.83743 -6.37923 -2.39141
upperneck -0.277494 -8.4727 4.95192
head 1.4123 -4.17097 1.66794
lclavicle -2.46493e-014 2.54444e-014 0
lhumerus 0.218174 -20.1642 15.9267
lradius 45.5471 -0 0
lwrist 22.785 0 0
lhand -22.22 -3.42311 -0.000677407
lfingers 7.12502 -0 0
lthumb 4.19634 26.5155 -0.000613519
rclavicle -2.46493e-014 2.54444e-014 0
rhumerus -12.5063 -2.21145 -26.8276
rradius 99.525 -0 0
rwrist -9.93216 0 0
rhand -26.6956 -34.1719 0.0150772
rfingers 7.12502 -0 0
rthumb -0.12606 -64.1489 0.0143557
715
root 5.49097 21.5295 7.79601 -140.605 -87.2103 157.04
lfemur -33.5571 -14.4896 8.51967
ltibia 65.1241 0 0
lfoot 7.43438 -9.44215 0
ltoes 29.8338 0 0
rfemur -33.8349 -1.58686 -1.91882
rtibia 97.0122 0 0
rfoot 21.3635 -20.6634 0
rtoes 42.9309 0 0
lowerback 5.99658 -0.553404 -1.77502
upperback -1.3238 -0.963173 -1.56773
thorax -4.7355 -0.456483 -0.530585
lowerneck -6.88249 -6.45178 -2.43303
upperneck -0.433777 -8.5592 4.89979
head 1.37063 -4.21848 1.65523
lclavicle 1.2921e-014 3.18055e-014 0
lhumerus -1.77093 -20.2407 16.623
lradius 44.6521 0 0
lwrist 22.5382 0 0
lhand -22.2191 -3.35407 0
lfingers 7.12502 0 0
lthumb 4.19717 26.5843 0
rclavicle 1.2921e-014 3.18055e-014 0
rhumerus -10.8552 -1.84384 -27.5558
rradius 99.2563 0 0
rwrist -9.86977 0 0
rhand -26.5547 -33.9151 0
rfingers 7.12502 0 0
rthumb 0.0100137 -783.895 0
716
root 5.47163 21.5285 8.01054 -38.6337 -85.0737 50.3163
lfemur -32.7694 -15.2093 7.81159
ltibia 62.3723 -0 0
lfoot 7.49597 -9.72137 0.00397911
ltoes 29.5179 -0 0
rfemur -34.2653 -2.43793 -2.38524
rtibia 99.7795 -0 0
rfoot 21.951 -20.3924 0.134432
rtoes 43.4653 -0 0
lowerback 5.89595 -0.261991 -1.65443
upperback -1.35478 -0.56201 -1.53558
thorax -4.69794 -0.259229 -0.577375
lowerneck -6.92976 -6.51932 -2.45539
upperneck -0.569232 -8.64195 4.83964
head 1.33451 -4.26401 1.63668
lclavicle 1.2921e-014 3.18055e-014 0
lhumerus -3.86222 -20.3438 17.3688
lradius 43.9623 -0 0
lwrist 22.3324 0 0
lhand -22.2162 -3.30814 -7.92578e-005
lfingers 7.12502 -0 0
lthumb 4.19998 26.6303 -7.43171e-005
rclavicle 1.2921e-014 3.18055e-014 0
rhumerus -9.07312 -1.53214 -28.238
rradius 98.9935 -0 0
rwrist -9.8086 0 0
rhand -26.4931 -33.6902 -0.0143618
rfingers 7.12502 -0 0
rthumb 0.0695203 -63.6723 -0.0137308
717
root 5.44781 21.5037 8.22597 -25.0135 -77.6526 30.3302
lfemur -31.9566 -15.8939 7.15096
ltibia 59.4905 -0 0
lfoot 7.66261 -10.0557 0.0239385
ltoes 29.1568 -0 0
rfemur -34.5638 -3.43926 -2.86776
rtibia 102.424 -0 0
rfoot 22.5932 -19.8188 0.276238
rtoes 43.7575 -0 0
lowerback 5.73757 0.0641161 -1.50382
upperback -1.4014 -0.111504 -1.50079
thorax -4.64017 -0.0383295 -0.638337
lowerneck -6.98751 -6.58335 -2.45986
upperneck -0.693569 -8.72238 4.76393
head 1.30189 -4.30864 1.60994
lclavicle 1.2921e-014 3.18055e-014 0
lhumerus -6.12921 -20.4955 18.2021
lradius 43.4277 -0 0
lwrist 22.1614 0 0
lhand -22.1946 -3.27193 -0.000854313
lfingers 7.12502 -0 0
lthumb 4.22079 26.6665 -0.00081835
rclavicle 1.2921e-014 3.18055e-014 0
rhumerus -7.1125 -1.28973 -28.8966
rradius 98.6945 -0 0
rwrist -9.76789 0 0
rhand -26.5066 -33.5047 -0.0297694
rfingers 7.12502 -0 0
rthumb 0.0564419 -63.4887 -0.0285371
718
root 5.41985 21.4567 8.44214 -23.9367 -68.661 21.3629
lfemur -31.1253 -16.5389 6.53207
ltibia 56.5054 -0 0
lfoot 7.91822 -10.4355 0.0583516
ltoes 28.7544 -0 0
rfemur -34.7368 -4.57348 -3.36116
rtibia 104.943 -0 0
rfoot 23.2817 -18.9732 0.417966
rtoes 43.8276 -0 0
lowerback 5.52808 0.420973 -1.3278
upperback -1.46167 0.382253 -1.4643
thorax -4.56434 0.20334 -0.711799
lowerneck -7.05425 -6.64418 -2.44809
upperneck -0.807347 -8.80076 4.67472
head 1.27256 -4.35244 1.57599
lclavicle 1.2921e-014 3.18055e-014 0
lhumerus -8.55293 -20.682 19.124
lradius 43.0378 -0 0
lwrist 22.0216 0 0
lhand -22.1573 -3.24523 -0.00222742
lfingers 7.12502 -0 0
lthumb 4.2569 26.693 -0.00213802
rclavicle 1.2921e-014 3.18055e-014 0
rhumerus -4.99458 -1.10105 -29.5401
rradius 98.3628 -0 0
rwrist -9.74394 0 0
rhand -26.5868 -33.3539 -0.0455717
rfingers 7.12502 -0 0
rthumb -0.021029 -63.3394 -0.0437856
719
root 5.38805 21.3894 8.65888 -26.0881 -58.5128 14.1013
lfemur -30.2822 -17.1397 5.9495
ltibia 53.4436 -0 0
lfoot 8.24671 -10.8511 0.105636
ltoes 28.315 -0 0
rfemur -34.7913 -5.82323 -3.86099
rtibia 107.335 -0 0
rfoot 24.008 -17.8859 0.552439
rtoes 43.6958 -0 0
lowerback 5.27404 0.804641 -1.13096
upperback -1.53365 0.913167 -1.42705
thorax -4.47256 0.462908 -0.796094
lowerneck -7.12851 -6.70213 -2.42173
upperneck -0.911134 -8.87734 4.57409
head 1.24629 -4.39547 1.5358
lclavicle 1.2921e-014 3.18055e-014 0
lhumerus -11.1141 -20.8894 20.1351
lradius 42.782 -0 0
lwrist 21.9091 0 0
lhand -22.1068 -3.22788 -0.00409005
lfingers 7.12502 -0 0
lthumb 4.30559 26.7101 -0.00392877
rclavicle 1.2921e-014 3.18055e-014 0
rhumerus -2.74108 -0.95055 -30.1765
rradius 98.002 -0 0
rwrist -9.73306 0 0
rhand -26.7253 -33.2328 -0.0612809
rfingers 7.12502 -0 0
rthumb -0.154699 -63.2195 -0.0589991
720
root 5.35273 21.3035 8.87603 -29.9609 -47.5208 6.93153
lfemur -29.434 -17.692 5.39818
ltibia 50.3314 -0 0
lfoot 8.63201 -11.2928 0.164029
ltoes 27.8426 -0 0
rfemur -34.7345 -7.17124 -4.36332
rtibia 109.597 -0 0
rfoot 24.7633 -16.5875 0.673069
rtoes 43.3822 -0 0
lowerback 4.98199 1.21116 -0.917832
upperback -1.6154 1.47514 -1.38994
thorax -4.36697 0.737502 -0.889568
lowerneck -7.20878 -6.75749 -2.38244
upperneck -1.0055 -8.95236 4.46409
head 1.22285 -4.43778 1.49034
lclavicle 1.2921e-014 3.18055e-014 0
lhumerus -13.7927 -21.1041 21.2349
lradius 42.65 -0 0
lwrist 21.8202 0 0
lhand -22.0462 -3.21967 -0.00632541
lfingers 7.12502 -0 0
lthumb 4.36415 26.718 -0.00607805
rclavicle 1.2921e-014 3.18055e-014 0
rhumerus -0.374093 -0.8227 -30.8133
rradius 97.6158 -0 0
rwrist -9.73157 0 0
rhand -26.9134 -33.1366 -0.0765226
rfingers 7.12502 -0 0
rthumb -0.336378 -63.1242 -0.0738083
721
root 5.31422 21.2009 9.09341 -35.192 -36.0433 -0.744712
lfemur -28.5873 -18.1912 4.8733
ltibia 47.1956 -0 0
lfoot 9.05811 -11.7511 0.23149
ltoes 27.3414 -0 0
rfemur -34.574 -8.60038 -4.86448
rtibia 111.726 -0 0
rfoot 25.5384 -15.1089 0.774128
rtoes 42.9071 -0 0
lowerback 4.65838 1.6365 -0.69287
upperback -1.70503 2.06207 -1.35384
thorax -4.24966 1.02425 -0.990585
lowerneck -7.29359 -6.81058 -2.33189
upperneck -1.09104 -9.02605 4.34683
head 1.20202 -4.47942 1.44061
lclavicle 1.2921e-014 3.18055e-014 0
lhumerus -16.5685 -21.313 22.4218
lradius 42.6312 -0 0
lwrist 21.7511 0 0
lhand -21.9782 -3.22042 -0.00881094
lfingers 7.12502 -0 0
lthumb 4.42988 26.7169 -0.00846773
rclavicle 1.2921e-014 3.18055e-014 0
rhumerus 2.08388 -0.701917 -31.457
rradius 97.2075 -0 0
rwrist -9.73577 0 0
rhand -27.1428 -33.0604 -0.0909919
rfingers 7.12502 -0 0
rthumb -0.557873 -63.0484 -0.0879102
